<svg xmlns="http://www.w3.org/2000/svg" width="1000" height="1000"><svg xmlns="http://www.w3.org/2000/svg" xmlns:svgjs="http://svgjs.dev/svgjs" xmlns:xlink="http://www.w3.org/1999/xlink" width="1000" height="1000" style="display:inline"><svg xmlns="http://www.w3.org/2000/svg" xmlns:svgjs="http://svgjs.dev/svgjs" xmlns:xlink="http://www.w3.org/1999/xlink" width="145" height="288" transform="translate(248.264) scale(3.47222)"><svg xmlns="http://www.w3.org/2000/svg" width="145" height="288" fill="none" viewBox="0 0 145 288"><path fill="#0057B7" d="M133.25 132.25c0 17.333-3.083 33.167-9.25 47.5-7.5 18-18.667 30.417-33.5 37.25-6.5 3-12.833 4.5-19 4.5-9.833 0-19.167-2.667-28-8-2.333-1.833-5-3.667-8-5.5-2.833-2-6.167-4.083-10-6.25-4-1.167-6.667-1.75-8-1.75-2.333 0-4.333.583-6 1.75C9.167 203.083 8 204.833 8 207c0 1.833 1.333 3.333 4 4.5 2.667 1.167 4 2.25 4 3.25 0 1.333-1.5 2.333-4.5 3-6.167 0-9.25-3.25-9.25-9.75 0-4 1.333-7.417 4-10.25s6-4.25 10-4.25c3-1 7.25-1 12.75 0 7.5 0 11.25-7.583 11.25-22.75v-71.5c0-9.5-1.667-15.5-5-18-1.333-1-3.5-1.667-6.5-2-2.167-.167-3.833-.25-5-.25h-2c-7.333-1.167-12.833-4.5-16.5-10C3.75 66.833 3 64.167 3 61c0-2.667.833-5.083 2.5-7.25 1.833-2.167 3.75-3.25 5.75-3.25 1.667 0 3.75 1.25 6.25 3.75v3c-5.5 0-8.25 1.5-8.25 4.5 0 5.667 3.917 8.5 11.75 8.5 2.833 0 5.667-.75 8.5-2.25a610.925 610.925 0 0 1 8.5-4.75c3.333-2 7.167-4.333 11.5-7C58.167 50.75 67.917 48 78.75 48c16.167 0 29.75 10.25 40.75 30.75 9.167 17.333 13.75 35.167 13.75 53.5ZM112 133c0-4.333-.25-9.083-.75-14.25-.333-5.167-.917-10.667-1.75-16.5-1.667-13.5-4.083-23.5-7.25-30C96.75 60.75 88.917 55 78.75 55c-5.667 0-9.75 2.333-12.25 7-5.167 9.333-7.75 29.5-7.75 60.5 0 10.167.25 22.083.75 35.75.333 6.833.583 12 .75 15.5.167 3.5.25 5.417.25 5.75 0 13.167.25 20.333.75 21.5 1.5 3.667 3.75 6.583 6.75 8.75 1.167 1 2.083 1.75 2.75 2.25l2 1c.667.167 1.417.25 2.25.25h4c13 0 22.5-10.167 28.5-30.5 0-.333.167-2 .5-5 .5-3.167 1.167-7.583 2-13.25a207.23 207.23 0 0 0 1.5-15c.333-5.333.5-10.833.5-16.5Zm-16.75-19.5c0 3.333-1.667 5-5 5-1 0-2-.667-3-2s-1.5-2.583-1.5-3.75c-.333-1.667.25-3.583 1.75-5.75 1.5-2.333 3.25-3.583 5.25-3.75 5.667-.167 8.5 3.25 8.5 10.25 0 6.333-4 12-12 17s-12 10-12 15c0 3.333 1.083 5 3.25 5 1.833 0 2.75-1 2.75-3v.25l1.25-1c.333.5.25 1.5-.25 3S82.5 152 80.5 152c-3.167 0-4.75-2.167-4.75-6.5 0-5.5 4-10.75 12-15.75s12-10.417 12-16.25-2.333-8.75-7-8.75c-1.5 0-2.917 1-4.25 3-1.167 1.833-1.583 3.5-1.25 5 0 .833.333 1.75 1 2.75.833 1 1.5 1.5 2 1.5 2.333 0 3.5-1.167 3.5-3.5h1.5Zm-15 64c-1.5-.167-2.75-1-3.75-2.5-1-1.667-1.5-3.167-1.5-4.5 0-5.667 2.417-10 7.25-13a239.152 239.152 0 0 1 6.75-3.25c2.333-1 4.667-2.083 7-3.25 4.833-2.333 7.25-5.667 7.25-10 0-5.167-2.167-7.75-6.5-7.75-1.667 0-3.417.917-5.25 2.75-1.833 1.667-2.75 3.167-2.75 4.5 0 1.5.5 2.583 1.5 3.25l2.5.5c.333-.333.75-.583 1.25-.75.167-.333.25-.75.25-1.25s.083-1.083.25-1.75h1.75c-.5 3.5-1.583 5.25-3.25 5.25l-3.25-.5c-1.667-1.167-2.5-2.75-2.5-4.75 0-1.5 1-3.333 3-5.5 2.167-2.167 4.333-3.25 6.5-3.25 5.167 0 7.833 3.083 8 9.25 0 4.833-2.417 8.667-7.25 11.5-2.333 1-4.583 2-6.75 3l-6.5 3c-5 2.833-7.5 6.75-7.5 11.75 0 1 .333 2.25 1 3.75.833 1.333 1.667 2 2.5 2v1.5Zm-1.5 14.5c0-2.833 4.333-7.5 13-14 3.5-2.667 5.25-4.833 5.25-6.5 0-5.333-2.083-8-6.25-8-4 0-6.083 1.833-6.25 5.5 0 1 .583 2.167 1.75 3.5l-1 1c-1.5-1.5-2.25-3-2.25-4.5.167-4.5 2.75-6.75 7.75-6.75 5.167 0 7.75 2.833 7.75 8.5 0 2.667-2 5.5-6 8.5-8.167 6.167-12.25 10.417-12.25 12.75h-1.5Zm6.5-1.5c3.833 0 5.75 1.417 5.75 4.25 0 4.5-2.333 6.75-7 6.75-9.167 0-13.75-8-13.75-24V172l-.5-62.5c0-6.667.25-13.917.75-21.75 1-13.167 5.667-19.75 14-19.75 2.5 0 4.667.583 6.5 1.75 1.167.833 2.417 2.583 3.75 5.25 1.5 2.667 2.25 4.75 2.25 6.25.167 3.833-.833 7.25-3 10.25a87.674 87.674 0 0 1-7.25 8.75 151.061 151.061 0 0 0-7.25 8.25c-2.167 2.667-3.167 5.5-3 8.5 0 1.5.5 2.917 1.5 4.25 1 1.167 1.917 1.75 2.75 1.75h.75c1 0 1.583-.333 1.75-1l1.5.5c-.833 1.333-1.917 2-3.25 2h-.75c-1.333 0-2.667-.75-4-2.25-1.167-1.667-1.75-3.417-1.75-5.25 0-4.167 2.083-8.583 6.25-13.25l10.5-11.25c2.5-3 3.75-6.75 3.75-11.25 0-1.333-.667-3.167-2-5.5-1.333-2.5-2.417-4-3.25-4.5-1.667-1.167-3.583-1.75-5.75-1.75-7.667 0-11.833 6.083-12.5 18.25-.5 8-.75 15.25-.75 21.75l.5 62.25v5.75c0 15 4.083 22.5 12.25 22.5 3.667 0 5.5-1.75 5.5-5.25 0-1.833-1.417-2.75-4.25-2.75v-1.5Zm.5-94.5c.167-.167.167-.417 0-.75 1.833-3.167 2.75-5.917 2.75-8.25 0-3-1.5-4.5-4.5-4.5-1.833 0-3.083 1.083-3.75 3.25.833 2.333 1.5 3.5 2 3.5.667 0 1.083-.083 1.25-.25l.5 1.5c-.167.167-.667.25-1.5.25-1.333 0-2.667-1.667-4-5C80 82.583 81.833 81 84 81c4 0 6 2.083 6 6.25 0 1.167-.417 3-1.25 5.5-.833 2.333-1.667 3.583-2.5 3.75l-.5-.5Z"/></svg></svg></svg></svg>